<?xml version="1.0" encoding="UTF-8"?>
<svg id="Layer_1" xmlns="http://www.w3.org/2000/svg" version="1.1" viewBox="0 0 1000 1000">
  <!-- Generator: Adobe Illustrator 29.0.1, SVG Export Plug-In . SVG Version: 2.1.0 Build 192)  -->
  <defs>
    <style>
      .st0 {
        fill: #1a6b4a;
      }
    </style>
  </defs>
  <path class="st0" d="M852.61,100.02c16.95-4.51-.11,790.66-3.44,794.1-225.27,50.47-135.41-238.43-663.54-306.88C-1.08,291.71,431.86,176.43,643.25,133.98M544.39,302.66l-32.47,270.14,1.71,6.81,50.34,55.39,50.34-55.39,1.78-5.19-32.53-271.78-39.18.02ZM608.43,244.68c-1.4-5.23-7.05-7.93-12.06-8.51-14.56-1.69-48.27-1.4-63.16-.04-5.65.51-12.04,2.27-13.72,8.55-1.77,6.61,21.91,40.29,25.22,49.09h38.5c3.31-8.81,27-42.49,25.22-49.09Z"/>
</svg>